# xmcd CD database generated by RipIT
#
# Track frame offsets:
# 150
# 16291
# 36593
# 73355
# 99784
# 120646
# 137782
# 165325
# 191757
# 216122
#
# Disc length: 3162 seconds
#
# Revision: 0
# Processed by: cddbd v1.5.2PL0 Copyright (c) Steve Scherf et al.
# Submitted via: RipIT 3.4.2.4 www.suwald.com/ripit/ripit.html at Mon Feb  2 21:20:21 CST 2009
#
DISCID=8d0c580a
DTITLE=The Back Alley Band - 11th Hour Blues
DYEAR=2008
DGENRE=Blues
TTITLE0=Highway Man
TTITLE1=Overheated
TTITLE2=Fine Little Girl
TTITLE3=My Baby's Gone
TTITLE4=Born In Chicago
TTITLE5=I'm Ready
TTITLE6=Feelin' The Groove
TTITLE7=Watch Out
TTITLE8=She's Dangerous
TTITLE9=Cut That Out
EXTD=
EXTT0=
EXTT1=
EXTT2=
EXTT3=
EXTT4=
EXTT5=
EXTT6=
EXTT7=
EXTT8=
EXTT9=
PLAYORDER=
